<?xml version="1.0" encoding="UTF-8" standalone="no"?>
<!DOCTYPE svg PUBLIC "-//W3C//DTD SVG 1.1//EN" "http://www.w3.org/Graphics/SVG/1.1/DTD/svg11.dtd">
<svg width="100%" height="100%" viewBox="0 0 512 512" version="1.1" xmlns="http://www.w3.org/2000/svg" xmlns:xlink="http://www.w3.org/1999/xlink" xml:space="preserve" xmlns:serif="http://www.serif.com/" style="fill-rule:evenodd;clip-rule:evenodd;stroke-linejoin:round;stroke-miterlimit:2;">
    <path d="M512,144L512,432C512,458.5 490.5,480 464,480L48,480C21.5,480 0,458.5 0,432L0,144C0,117.5 21.5,96 48,96L136,96L148.3,63.1C155.3,44.4 173.2,32 193.2,32L318.7,32C338.7,32 356.6,44.4 363.6,63.1L376,96L464,96C490.5,96 512,117.5 512,144ZM376,288C376,221.8 322.2,168 256,168C189.8,168 136,221.8 136,288C136,354.2 189.8,408 256,408C322.2,408 376,354.2 376,288ZM344,288C344,336.5 304.5,376 256,376C207.5,376 168,336.5 168,288C168,239.5 207.5,200 256,200C304.5,200 344,239.5 344,288Z" style="fill:rgb(54,71,78);fill-rule:nonzero;"/>
    <path d="M256,168C322.23,168 376,221.77 376,288C376,354.23 322.23,408 256,408C189.77,408 136,354.23 136,288C136,221.77 189.77,168 256,168ZM256,200C304.569,200 344,239.431 344,288C344,336.569 304.569,376 256,376C207.431,376 168,336.569 168,288C168,239.431 207.431,200 256,200Z" style="fill:white;"/>
</svg>
