<?xml version="1.0" standalone="no"?>
<!DOCTYPE svg PUBLIC "-//W3C//DTD SVG 20010904//EN"
 "http://www.w3.org/TR/2001/REC-SVG-20010904/DTD/svg10.dtd">
<svg version="1.0" xmlns="http://www.w3.org/2000/svg"
 width="16.000000pt" height="16.000000pt" viewBox="0 0 16.000000 16.000000"
 preserveAspectRatio="xMidYMid meet">
<metadata>
Created by potrace 1.11, written by Peter Selinger 2001-2013
</metadata>
<g transform="translate(0.000000,16.000000) scale(0.001587,-0.001587)"
fill="#000000" stroke="none">
<path d="M1168 7755 c-2 -2 -32 -6 -68 -10 -53 -6 -133 -26 -235 -59 -55 -18
-159 -81 -212 -129 -93 -85 -189 -255 -208 -368 -3 -19 -8 -42 -11 -52 -13
-43 -16 -153 -18 -807 -2 -382 -7 -715 -11 -740 -5 -25 -8 -48 -7 -52 1 -3 -5
-12 -13 -18 -8 -7 -15 -18 -15 -24 0 -6 -13 -20 -28 -31 -24 -17 -43 -20 -184
-20 l-158 0 0 -367 0 -366 143 0 c182 0 213 -9 240 -72 28 -67 30 -125 32
-830 2 -399 5 -735 8 -746 3 -12 8 -39 11 -60 26 -160 124 -348 223 -427 13
-10 29 -24 36 -30 47 -43 205 -114 292 -132 22 -5 45 -9 50 -11 40 -10 81 -15
150 -20 115 -8 445 -8 453 0 8 9 9 716 1 722 -4 2 -38 6 -75 8 -158 11 -243
45 -286 114 l-23 37 -3 735 c-1 404 -3 743 -4 753 -1 9 -6 17 -10 17 -4 0 -8
8 -8 18 0 25 -26 93 -51 138 -27 46 -122 144 -139 144 -9 0 -7 7 5 20 10 11
20 18 22 16 5 -5 72 69 99 109 22 32 64 126 69 154 1 9 6 36 11 61 4 25 8 358
8 740 l1 695 25 50 c44 87 115 118 270 116 l95 -1 0 363 0 362 -237 2 c-130 0
-238 0 -240 -2z"/>
<path d="M8399 7713 c-1 -26 0 -52 1 -58 1 -5 1 -32 0 -60 -1 -27 -2 -63 -1
-80 0 -16 0 -55 0 -85 -1 -99 -1 -227 0 -250 2 -43 -1 -115 -4 -119 -2 -2 0
-11 5 -20 6 -12 19 -17 40 -15 18 1 60 -2 94 -7 148 -21 218 -59 245 -132 7
-18 11 -266 11 -740 1 -669 2 -717 20 -789 10 -42 30 -99 44 -126 26 -50 127
-162 149 -162 6 0 -11 -22 -39 -48 -99 -92 -157 -210 -168 -342 -3 -30 -6
-356 -6 -725 -1 -743 0 -729 -67 -790 -52 -48 -184 -73 -285 -55 l-38 7 0 -36
c0 -58 0 -73 -1 -131 -1 -93 -1 -226 0 -250 1 -25 0 -103 -3 -130 -1 -14 1
-39 5 -57 4 -17 3 -50 -1 -72 -4 -22 -4 -45 0 -52 6 -9 62 -12 216 -11 295 2
362 9 519 60 143 45 275 141 354 255 31 45 80 144 85 170 1 7 10 37 18 67 30
99 31 121 34 560 2 239 5 579 7 755 2 279 5 325 20 359 23 53 61 86 100 87 18
1 86 2 152 4 66 1 125 3 130 4 10 1 15 720 5 722 -3 1 -73 2 -157 4 -175 2
-192 8 -226 83 -21 46 -22 60 -25 507 -3 674 -8 1023 -15 1080 -8 71 -40 181
-72 251 -104 223 -295 350 -597 399 -42 6 -183 13 -312 14 l-236 2 -1 -48z"/>
<path d="M6093 7412 l-33 -3 0 -479 c0 -373 -3 -479 -12 -482 -7 -2 -92 -4
-189 -3 l-177 1 1 -323 c0 -226 3 -323 11 -324 6 0 89 -1 184 -1 117 -1 175
-5 178 -12 2 -6 5 -384 7 -841 2 -456 7 -846 11 -865 4 -19 12 -53 18 -75 5
-22 12 -51 15 -64 7 -42 65 -184 96 -236 55 -94 91 -140 169 -217 142 -140
315 -237 513 -287 157 -40 421 -35 575 9 25 7 50 14 55 15 48 10 295 131 315
155 3 3 34 27 70 52 36 25 84 64 108 85 l43 38 -24 45 c-13 25 -45 86 -72 135
-26 50 -66 124 -87 165 -22 41 -65 122 -95 178 l-56 104 -52 -55 c-111 -115
-227 -168 -375 -170 -135 -2 -267 106 -305 248 -5 17 -10 37 -12 45 -6 22 -9
1530 -3 1540 3 4 172 8 375 8 204 0 377 1 385 1 14 1 16 41 16 324 l0 323
-373 -1 c-206 0 -382 3 -391 6 -16 6 -17 44 -16 483 l1 476 -36 1 c-182 2
-813 3 -838 1z"/>
<path d="M3578 6495 c-2 -2 -32 -6 -68 -9 -67 -6 -127 -13 -170 -21 -14 -3
-41 -8 -60 -11 -19 -3 -43 -7 -52 -10 -10 -3 -30 -7 -45 -10 -90 -16 -330 -99
-464 -161 -116 -54 -344 -189 -385 -228 -7 -7 17 -50 82 -145 52 -74 97 -139
102 -145 4 -5 47 -68 96 -140 49 -71 94 -136 101 -144 11 -12 21 -8 63 22 61
45 239 138 318 167 99 36 197 68 227 74 15 3 39 8 54 12 15 3 30 7 33 9 35 22
357 26 440 6 86 -22 174 -67 224 -118 46 -46 100 -142 111 -198 21 -104 26
-183 13 -191 -6 -4 -203 -9 -437 -10 -234 -2 -446 -5 -471 -8 -86 -9 -169 -21
-215 -31 -14 -3 -37 -7 -52 -10 -156 -29 -411 -141 -518 -228 -62 -51 -153
-146 -160 -169 -4 -10 -10 -18 -15 -18 -5 0 -12 -10 -16 -22 -3 -13 -13 -31
-22 -40 -8 -10 -12 -18 -8 -18 4 0 -1 -15 -12 -33 -22 -34 -57 -151 -69 -227
-17 -105 -6 -385 18 -447 5 -13 6 -23 4 -23 -8 0 56 -170 82 -218 61 -110 162
-233 245 -294 20 -15 42 -33 50 -41 52 -50 306 -177 383 -190 11 -2 27 -7 35
-10 8 -3 33 -9 55 -13 22 -4 47 -9 55 -11 79 -18 352 -25 437 -11 51 9 154 35
186 48 28 11 60 23 67 25 16 4 115 59 156 87 70 47 98 71 197 170 l87 89 0
-191 c0 -145 3 -190 13 -191 15 -1 808 -1 823 0 11 1 12 2211 1 2261 -3 14 -8
45 -11 70 -3 25 -8 54 -11 65 -2 11 -9 40 -15 65 -16 69 -48 156 -77 213 -28
57 -88 153 -106 172 -7 7 -28 30 -48 51 -176 191 -451 318 -799 370 -44 6
-446 14 -452 9z m623 -1915 c1 -14 1 -29 0 -33 -1 -5 -3 -52 -5 -105 -5 -161
-40 -248 -140 -347 -119 -120 -282 -185 -461 -186 -265 -1 -440 92 -484 258
-16 60 -16 151 1 204 14 41 23 57 68 108 19 21 80 65 80 56 0 -3 10 1 23 9 28
19 139 45 221 53 33 3 62 6 63 7 1 0 143 1 317 1 l316 0 1 -25z"/>
</g>
</svg>
